<?xml version="1.0" standalone="no"?>
<!DOCTYPE svg PUBLIC "-//W3C//DTD SVG 20010904//EN"
 "http://www.w3.org/TR/2001/REC-SVG-20010904/DTD/svg10.dtd">
<svg version="1.0" xmlns="http://www.w3.org/2000/svg"
 width="554.000000pt" height="554.000000pt" viewBox="0 0 554.000000 554.000000"
 preserveAspectRatio="xMidYMid meet">

<g transform="translate(0.000000,554.000000) scale(0.100000,-0.100000)"
fill="#666" stroke="none">
<path d="M373 4661 c-77 -20 -123 -77 -123 -154 0 -58 19 -98 62 -129 31 -22
44 -23 237 -28 l205 -5 305 -1222 c334 -1334 310 -1256 395 -1288 36 -14 201
-15 1492 -13 l1450 3 37 25 c20 14 43 39 52 55 8 17 123 464 256 995 176 706
239 974 235 1000 -11 70 -76 125 -159 135 -29 4 -64 2 -79 -4 -41 -16 -73 -84
-102 -216 -14 -66 -113 -470 -219 -897 l-192 -778 -1297 0 -1297 0 -10 38 c-5
20 -109 435 -231 922 -122 487 -255 1017 -295 1179 -44 176 -82 305 -93 320
-10 14 -34 35 -53 46 -31 18 -54 20 -289 22 -140 1 -270 -2 -287 -6z"/>
<path d="M1705 1496 c-266 -62 -449 -246 -501 -505 -63 -320 150 -651 468
-726 92 -22 228 -19 318 6 114 31 185 74 276 164 126 125 184 262 184 437 0
105 -13 173 -50 255 -102 226 -303 365 -549 378 -54 3 -108 0 -146 -9z m225
-325 c180 -69 257 -270 170 -441 -61 -119 -212 -190 -342 -160 -157 36 -256
167 -246 325 14 210 224 349 418 276z"/>
<path d="M3905 1494 c-120 -26 -228 -85 -314 -173 -229 -230 -252 -566 -58
-828 147 -198 423 -290 667 -222 110 30 185 74 271 159 129 127 189 271 189
449 0 284 -192 533 -466 606 -88 24 -207 27 -289 9z m235 -323 c78 -30 134
-82 172 -158 134 -273 -157 -551 -432 -412 -54 26 -115 98 -140 165 -58 156
10 321 165 395 74 36 158 39 235 10z"/>
</g>
</svg>
